# xmcd CD database file
#
# Track frame offsets:
#	150
#	19942
#	40931
#	64923
#	90515
#	111352
#	137679
#	161841
#	186946
#	210413
#	231317
#
# Disc length: 3487 seconds
#
# Revision: 0
# Processed by: cddbd v1.5PL3 Copyright (c) Steve Scherf et al.
# Submitted via: CDex 1.51
#
DISCID=990d9d0b
DTITLE=尾崎 豊 - 愛すべきものすべてに BEST
DYEAR=1900
DGENRE=Pop
TTITLE0=アイ・ラヴ・ユー
TTITLE1=オー・マイ・リトル・ガール
TTITLE2=フォーゲット・ミー・ノット
TTITLE3=黄昏ゆく街で
TTITLE4=路上のルール
TTITLE5=ラヴ・ウェイ
TTITLE6=汚れた絆
TTITLE7=15の夜
TTITLE8=スクランブリング・ロックン・ロール
TTITLE9=ふたつの心
TTITLE10=卒業
EXTD=
EXTT0=
EXTT1=
EXTT2=
EXTT3=
EXTT4=
EXTT5=
EXTT6=
EXTT7=
EXTT8=
EXTT9=
EXTT10=
PLAYORDER=
